# xmcd
#
# Track frame offsets: 
#        150
#        22050
#        38255
#        58587
#        78000
#        101552
#        121460
#        142042
#        161472
#        177270
#        195052
#        213807
#
# Disc length: 3039 seconds
#
# Revision: 1
# Processed by: cddbd v1.5.2PL0 Copyright (c) Steve Scherf et al.
# Submitted via: ExactAudioCopy v0.95b4
#
DISCID=8e0bdd0c
DTITLE=Roy Rogers - Pleasure and Pain
DYEAR=1998
DGENRE=Blues
TTITLE0=Down Here In The Real Big Empty
TTITLE1=Will My Love To You
TTITLE2=Maybe Not
TTITLE3=My Lost Home In Your Arms
TTITLE4=You Can't Stop Now
TTITLE5=I'm Failin' By Degrees
TTITLE6=Gertie Ruth
TTITLE7=Bloody Barefoot Blues
TTITLE8=My Rose In The Snow
TTITLE9=Down At Josephine's
TTITLE10=What The Funk
TTITLE11=Gone But Not Forgotten
EXTD=goold slippery guitar blues, great tunes - this one's a keeper
EXTT0=
EXTT1=
EXTT2=
EXTT3=
EXTT4=
EXTT5=
EXTT6=
EXTT7=
EXTT8=
EXTT9=
EXTT10=
EXTT11=
PLAYORDER=
